<?xml version="1.0" standalone="no"?>
<!DOCTYPE svg PUBLIC "-//W3C//DTD SVG 20010904//EN"
 "http://www.w3.org/TR/2001/REC-SVG-20010904/DTD/svg10.dtd">
<svg version="1.0" xmlns="http://www.w3.org/2000/svg"
 width="512.000000pt" height="512.000000pt" viewBox="0 0 512.000000 512.000000"
 preserveAspectRatio="xMidYMid meet">
<metadata>
Created by potrace 1.14, written by Peter Selinger 2001-2017
</metadata>
<g transform="translate(0.000000,512.000000) scale(0.100000,-0.100000)"
fill="#000000" stroke="none">
<path d="M2418 4475 c-2 -1 -32 -6 -68 -9 -84 -9 -126 -15 -175 -27 -22 -5
-50 -12 -63 -15 -37 -8 -173 -54 -222 -76 -85 -37 -235 -113 -238 -120 -2 -5
-10 -8 -17 -8 -7 0 -15 -3 -17 -7 -1 -5 -33 -28 -70 -53 -38 -25 -68 -48 -68
-52 0 -5 -6 -8 -14 -8 -8 0 -16 -3 -18 -7 -1 -5 -25 -26 -53 -47 -94 -75 -280
-271 -338 -358 -70 -104 -186 -334 -221 -438 -21 -61 -52 -175 -80 -290 -2 -8
-9 -33 -15 -55 -5 -22 -12 -53 -15 -70 -3 -16 -11 -50 -19 -75 -17 -59 -22
-254 -7 -327 6 -32 24 -114 40 -183 16 -69 39 -170 50 -225 43 -203 85 -301
211 -490 29 -44 57 -85 63 -91 6 -6 29 -33 50 -60 39 -49 52 -60 176 -154 36
-27 74 -57 85 -67 11 -10 38 -31 60 -48 22 -16 45 -34 50 -41 6 -6 44 -38 85
-70 41 -32 76 -62 78 -66 2 -5 7 -8 12 -8 4 0 33 -15 64 -34 31 -19 102 -50
159 -71 56 -20 109 -39 117 -42 17 -7 24 -9 60 -17 14 -3 54 -12 90 -21 85
-22 97 -24 150 -31 25 -3 72 -9 105 -14 158 -21 461 2 625 46 30 8 62 16 70
18 30 8 176 68 250 104 41 20 80 37 87 38 6 1 28 13 49 28 20 14 41 23 46 20
4 -3 8 -1 8 4 0 5 8 12 18 16 18 6 48 23 122 70 88 57 175 135 251 227 19 22
39 46 45 52 5 7 39 48 73 92 35 44 69 83 75 87 6 5 7 8 1 8 -6 0 -5 3 1 8 17
11 114 155 114 169 0 7 3 13 8 13 17 0 122 264 122 308 0 10 5 23 12 30 7 7 9
12 6 12 -4 0 -2 15 3 33 5 17 12 46 15 62 2 17 7 38 10 47 5 18 13 50 20 88 2
14 7 36 9 50 13 62 18 156 17 285 -2 155 -7 223 -23 305 -7 30 -13 62 -14 70
-1 8 -4 22 -7 30 -4 8 -12 33 -18 55 -6 22 -15 49 -20 60 -11 27 -158 333
-175 365 -7 14 -25 47 -39 74 -14 27 -26 53 -26 58 0 25 -200 271 -299 368
-103 101 -147 127 -451 267 -36 16 -94 42 -130 58 -36 15 -74 31 -85 36 -132
59 -438 116 -625 117 -71 0 -130 -1 -132 -3z"/>
</g>
</svg>
